# xmcd
#
# Track frame offsets: 
#        150
#        21071
#        37293
#        56850
#        72898
#        88324
#        104817
#        123045
#        142631
#        161249
#        176560
#        192967
#        211185
#        230579
#        245663
#        261705
#        280599
#        296817
#        311442
#        329956
#
# Disc length: 4593 seconds
#
# Revision: 0
# Processed by: cddbd v1.5.2PL0 Copyright (c) Steve Scherf et al.
# Submitted via: ExactAudioCopy v0.99pb3
#
DISCID=4111ef14
DTITLE=Various Artist - Nu Urban Traxx #125
DYEAR=2008
DGENRE=Rap
TTITLE0=Missy Eliott - Best Best
TTITLE1=Ashanti - Good Good
TTITLE2=DJ Khaled Ft Others - Out Here Grindin'
TTITLE3=Slim Ft Yung Joc - So Fly
TTITLE4=Keri Hilson - Energy
TTITLE5=Savage Ft Soulja Boy - Swing
TTITLE6=Topic Ft Trey Songz - I Got To Get It
TTITLE7=Trai D - Gutta Chick
TTITLE8=Charlie Wilson - Homeless
TTITLE9=Dolla - I'm Tore Up
TTITLE10=Cheri Dennis - Pretend
TTITLE11=Raheem DeVaughn - Text Message
TTITLE12=Keith Sweat Ft Athena Cage - Butterscotch
TTITLE13=Musiq - Radio
TTITLE14=Danity Kane Ft Missy Elliott - Bad Girl
TTITLE15=V.I.C Ft Soulja Boy and Others - Get Silly Remix
TTITLE16=One Block Radius - You Got Me
TTITLE17=Soulja Boy - Donk
TTITLE18=Colby O'Donis - Don't Turn Back
TTITLE19=9th Ward Ft JD and Nitti - Add Me Up
EXTD=
EXTT0=
EXTT1=
EXTT2=
EXTT3=
EXTT4=
EXTT5=
EXTT6=
EXTT7=
EXTT8=
EXTT9=
EXTT10=
EXTT11=
EXTT12=
EXTT13=
EXTT14=
EXTT15=
EXTT16=
EXTT17=
EXTT18=
EXTT19=
PLAYORDER=
